<svg width="23" height="22" viewBox="0 0 23 22" fill="none" xmlns="http://www.w3.org/2000/svg">
<mask id="mask0_759_17475" style="mask-type:alpha" maskUnits="userSpaceOnUse" x="0" y="0" width="23" height="22">
<path fill-rule="evenodd" clip-rule="evenodd" d="M0.144531 0H22.1445V22H0.144531V0Z" fill="white"/>
</mask>
<g mask="url(#mask0_759_17475)">
<path fill-rule="evenodd" clip-rule="evenodd" d="M11.1446 0C8.15711 0 7.78251 0.0126642 6.60925 0.0662034C5.43842 0.119611 4.63879 0.305601 3.93911 0.577576C3.21577 0.858679 2.60232 1.23485 1.99076 1.84645C1.37923 2.45808 1.00311 3.0716 0.722039 3.79503C0.450096 4.4948 0.264129 5.29452 0.210727 6.46548C0.157194 7.63889 0.144531 8.01353 0.144531 11.0013C0.144531 13.9891 0.157194 14.3637 0.210727 15.5371C0.264129 16.7081 0.450096 17.5078 0.722039 18.2076C1.00311 18.931 1.37923 19.5445 1.99076 20.1562C2.60232 20.7678 3.21577 21.1439 3.93911 21.4251C4.63879 21.697 5.43842 21.883 6.60925 21.9364C7.78251 21.99 8.15711 22.0026 11.1446 22.0026C14.132 22.0026 14.5066 21.99 15.6798 21.9364C16.8506 21.883 17.6503 21.697 18.3499 21.4251C19.0733 21.1439 19.6867 20.7678 20.2983 20.1562C20.9098 19.5445 21.286 18.931 21.5671 18.2076C21.839 17.5078 22.0249 16.7081 22.0783 15.5371C22.1319 14.3637 22.1445 13.9891 22.1445 11.0013C22.1445 8.01353 22.1319 7.63889 22.0783 6.46548C22.0249 5.29452 21.839 4.4948 21.5671 3.79503C21.286 3.0716 20.9098 2.45808 20.2983 1.84645C19.6867 1.23485 19.0733 0.858679 18.3499 0.577576C17.6503 0.305601 16.8506 0.119611 15.6798 0.0662034C14.5066 0.0126642 14.132 0 11.1446 0ZM11.1469 1.98438C14.084 1.98438 14.432 1.9956 15.5919 2.04853C16.6644 2.09744 17.2468 2.27666 17.6344 2.42732C18.1479 2.62689 18.5143 2.86528 18.8992 3.25027C19.2841 3.63522 19.5225 4.0017 19.7221 4.51521C19.8727 4.90287 20.0519 5.48538 20.1008 6.558C20.1537 7.71804 20.1649 8.066 20.1649 11.0035C20.1649 13.9409 20.1537 14.2889 20.1008 15.4489C20.0519 16.5216 19.8727 17.1041 19.7221 17.4917C19.5225 18.0052 19.2841 18.3717 18.8992 18.7567C18.5143 19.1417 18.1479 19.3801 17.6344 19.5796C17.2468 19.7303 16.6644 19.9095 15.5919 19.9584C14.4321 20.0113 14.0843 20.0226 11.1469 20.0226C8.20959 20.0226 7.86176 20.0113 6.70198 19.9584C5.62949 19.9095 5.04705 19.7303 4.65944 19.5796C4.14599 19.3801 3.77956 19.1417 3.39465 18.7567C3.00975 18.3717 2.77134 18.0052 2.5718 17.4917C2.42115 17.1041 2.24195 16.5216 2.19305 15.4489C2.14013 14.2889 2.12891 13.9409 2.12891 11.0035C2.12891 8.066 2.14013 7.71804 2.19305 6.558C2.24195 5.48538 2.42115 4.90287 2.5718 4.51521C2.77134 4.0017 3.00971 3.63522 3.39465 3.25027C3.77956 2.86528 4.14599 2.62689 4.65944 2.42732C5.04705 2.27666 5.62949 2.09744 6.70198 2.04853C7.86189 1.9956 8.20981 1.98438 11.1469 1.98438Z" fill="white"/>
</g>
<path fill-rule="evenodd" clip-rule="evenodd" d="M11.1472 14.6701C9.12208 14.6701 7.48047 13.0283 7.48047 11.0031C7.48047 8.97775 9.12208 7.33594 11.1472 7.33594C13.1722 7.33594 14.8138 8.97775 14.8138 11.0031C14.8138 13.0283 13.1722 14.6701 11.1472 14.6701ZM11.1448 5.35156C8.02506 5.35156 5.49609 7.88083 5.49609 11.0009C5.49609 14.1209 8.02506 16.6502 11.1448 16.6502C14.2644 16.6502 16.7934 14.1209 16.7934 11.0009C16.7934 7.88083 14.2644 5.35156 11.1448 5.35156Z" fill="white"/>
<path fill-rule="evenodd" clip-rule="evenodd" d="M18.3353 5.12487C18.3353 5.85398 17.7443 6.445 17.0153 6.445C16.2863 6.445 15.6953 5.85398 15.6953 5.12487C15.6953 4.39576 16.2863 3.80469 17.0153 3.80469C17.7443 3.80469 18.3353 4.39576 18.3353 5.12487Z" fill="white"/>
</svg>
