<?xml version="1.0" encoding="utf-8"?>
<svg width="240" height="135" viewBox="0 0 240 135" fill="none" xmlns="http://www.w3.org/2000/svg">
<path d="M84.5713 44.3581C84.5713 43.5705 84.7409 42.8192 85.0439 42.1285C85.3589 41.4378 85.7709 40.8198 86.3041 40.2988C86.8373 39.7777 87.4553 39.3657 88.1581 39.0749C88.8609 38.7841 89.6122 38.6387 90.3998 38.6387C91.1874 38.6387 91.9387 38.8083 92.6294 39.1113C93.3201 39.4263 93.9381 39.8383 94.4591 40.3715C94.9802 40.9046 95.3922 41.5226 95.683 42.2254C95.9738 42.9283 96.1192 43.6795 96.1192 44.4672C96.1192 45.2548 95.9496 46.0061 95.6467 46.6968C95.3316 47.3875 94.9196 48.0055 94.3864 48.5265C93.8533 49.0476 93.2353 49.4596 92.5325 49.7504C91.8297 50.0412 91.0784 50.1866 90.2907 50.1866C89.5031 50.1866 88.7518 50.017 88.0611 49.714C87.3704 49.4111 86.7524 48.987 86.2314 48.4538C85.7103 47.9207 85.2983 47.3027 85.0075 46.5998C84.7167 45.897 84.5713 45.1458 84.5713 44.3581ZM95.4407 54.2944L95.2589 70.7015L85.0075 70.6046L85.1893 54.1975L95.4407 54.2944V54.2944Z" fill="#6769C9"/>
<path d="M151.824 54.0889C153.059 52.3198 154.562 50.9263 156.343 49.8842C158.125 48.8421 160.039 48.1998 162.099 47.9575C164.159 47.7151 166.292 47.8727 168.497 48.4422C170.703 49.0117 172.847 50.0174 174.919 51.4715C176.967 52.9014 178.639 54.5373 179.948 56.3912C181.257 58.2452 182.166 60.184 182.662 62.2197C183.159 64.2434 183.22 66.2912 182.844 68.3512C182.469 70.4112 181.62 72.3863 180.3 74.2766C178.979 76.1669 177.416 77.6453 175.598 78.6995C173.78 79.7537 171.842 80.4081 169.782 80.6504C167.722 80.8928 165.589 80.711 163.371 80.0809C161.154 79.4629 159.009 78.4208 156.937 76.9788C154.889 75.549 153.217 73.9252 151.908 72.0955C150.6 70.2657 149.727 68.3391 149.267 66.3154C148.806 64.2918 148.782 62.2319 149.182 60.1477C149.582 58.0513 150.466 56.0277 151.824 54.0768V54.0889ZM160.633 60.3658C160.076 61.1776 159.7 62.0137 159.53 62.8862C159.361 63.7587 159.336 64.6069 159.482 65.443C159.615 66.2791 159.918 67.0546 160.391 67.8059C160.863 68.5451 161.469 69.1752 162.208 69.6962C162.947 70.2173 163.759 70.5687 164.62 70.7504C165.48 70.9322 166.328 70.9443 167.152 70.7868C167.976 70.6293 168.764 70.3142 169.527 69.8537C170.291 69.3933 170.933 68.7753 171.478 67.9998C172.023 67.2243 172.338 66.4487 172.508 65.5763C172.678 64.7038 172.69 63.8556 172.557 63.0195C172.423 62.1834 172.12 61.3958 171.648 60.6566C171.175 59.9174 170.569 59.2873 169.818 58.7663C169.067 58.2452 168.267 57.8938 167.407 57.712C166.546 57.5303 165.698 57.5182 164.874 57.6757C164.05 57.8332 163.262 58.1362 162.511 58.5845C161.76 59.0328 161.13 59.6266 160.609 60.3658H160.633Z" fill="#6769C9"/>
<path d="M200.669 45.7517C198.573 45.4003 196.658 45.5093 194.938 46.0667C194.041 46.3575 193.375 46.7817 192.926 47.3148C192.49 47.8601 192.369 48.4296 192.563 49.0476C192.672 49.3748 192.793 49.6171 192.95 49.7868C193.108 49.9564 193.362 50.0776 193.726 50.1624C194.089 50.2473 194.586 50.2594 195.229 50.2109C195.871 50.1624 196.707 50.0897 197.749 49.9928C200.621 49.6535 202.947 49.9564 204.729 50.9137C206.51 51.871 207.746 53.422 208.449 55.5668C208.97 57.1784 209.127 58.7416 208.897 60.2442C208.667 61.7467 208.122 63.1281 207.261 64.3762C206.401 65.6364 205.238 66.7634 203.783 67.7691C202.329 68.7749 200.621 69.5989 198.682 70.229C194.95 71.4407 190.915 71.5861 186.601 70.641L187.91 62.5828C191.242 63.5644 194.138 63.6613 196.586 62.8615C197.482 62.5707 198.161 62.1345 198.597 61.5529C199.046 60.9712 199.167 60.3775 198.973 59.7595C198.852 59.3959 198.718 59.1172 198.549 58.9112C198.379 58.7052 198.125 58.5477 197.773 58.4508C197.422 58.3417 196.937 58.3054 196.331 58.3296C195.725 58.3538 194.938 58.4144 193.98 58.5235C190.769 58.8991 188.358 58.6689 186.758 57.857C185.159 57.0452 184.02 55.5789 183.329 53.4584C182.832 51.9195 182.663 50.429 182.832 48.9992C183.002 47.5693 183.487 46.2485 184.286 45.0367C185.086 43.825 186.165 42.7344 187.546 41.7771C188.915 40.8199 190.539 40.0322 192.405 39.4264C195.459 38.4327 198.621 38.0571 201.881 38.3115L200.657 45.7396L200.669 45.7517Z" fill="#6769C9"/>
<path d="M80.1485 66.8129L81.3117 49.1578C81.4329 47.2311 81.2875 45.5831 80.8755 44.1896C80.4514 42.7961 79.8334 41.6571 79.0336 40.7483C78.2218 39.8394 77.2281 39.1488 76.0528 38.6762C74.8774 38.2036 73.605 37.9249 72.2479 37.8279C67.9825 37.5492 64.5896 39.1609 62.045 42.6628C60.0213 38.8943 56.8587 36.8707 52.557 36.592C49.0914 36.3617 45.8681 37.5008 42.9115 39.9849L43.1417 36.4223L32.9024 35.7559L31 64.7651L41.2393 65.4315L42.1723 51.1208C42.2692 49.5698 42.4752 48.3338 42.7903 47.3886C43.0932 46.4435 43.4931 45.7164 43.9536 45.1954C44.4262 44.6743 44.9472 44.3471 45.5288 44.1896C46.1105 44.0442 46.7164 43.9836 47.3586 44.02C48.1099 44.0684 48.7642 44.2139 49.3216 44.4562C49.879 44.6986 50.3031 45.1227 50.6303 45.7043C50.9454 46.2981 51.1756 47.0736 51.2968 48.043C51.4179 49.0124 51.4422 50.2362 51.3452 51.7146L50.4122 66.0253L60.6514 66.6918L61.5845 52.381C61.8996 47.5946 63.6929 45.3044 66.9768 45.5225C67.5826 45.5589 68.14 45.6922 68.649 45.9224C69.17 46.1405 69.6063 46.5283 69.9577 47.0857C70.3212 47.6431 70.5757 48.3944 70.7211 49.3517C70.8665 50.3089 70.8907 51.5207 70.7938 52.9869L70.0667 65.6012C69.4245 76.9553 76.8889 84.7468 88.352 85.5223C88.6307 81.4266 88.7276 80.0452 88.9942 75.9495C84.8864 75.2588 79.6516 73.7926 80.1606 66.7887L80.1485 66.8129Z" fill="#6769C9"/>
<path d="M151.896 78.7843C148.794 76.0942 147.594 75.1248 144.492 72.4469C141.026 76.688 137.718 77.4514 131.49 70.5081L121.057 58.5481L131.793 44.6494L117.773 45.6915L110.599 56.367L108.491 28L98.2637 28.7634L101.754 75.6701L111.981 74.9067L111.096 63.0922L121.663 75.7186C123.577 77.9846 126.825 81.0503 126.97 81.1472C135.464 88.0421 144.516 87.3029 151.883 78.7843H151.896Z" fill="#6769C9"/>
<path d="M143.704 41.8125L143.789 39.4012L134.471 39.0861L133.477 68.1923L142.795 68.5073L143.316 53.2151C154.198 43.0001 164.849 39.6556 176.845 45.5084C178.118 42.0307 178.748 40.2857 180.02 36.808C165.782 30.9795 155.664 34.0937 143.704 41.8247V41.8125Z" fill="#6769C9"/>
<path d="M52.2546 104.134H47.4197L46.6442 106.4H43.0332L47.9892 93.3613H51.6851L56.6411 106.4H53.0301L52.2546 104.134ZM51.3579 101.553L49.8311 97.2147L48.3043 101.553H51.3458H51.3579Z" fill="black"/>
<path d="M63.2695 106.4V93.3613H66.6624L72.915 101.335V93.3613H76.2837V106.4H72.915L66.6624 98.4264V106.4H63.2695Z" fill="black"/>
<path d="M87.6497 93.373V106.411H84.2568V93.373H87.6497Z" fill="black"/>
<path d="M94.9082 106.4L97.1257 93.3613H100.482L103.087 100.305L105.681 93.3613H109.037L111.255 106.4H107.886L106.759 98.899L103.681 106.4H102.336L99.4159 98.899L98.289 106.4H94.9203H94.9082Z" fill="black"/>
<path d="M126.826 104.134H121.991L121.216 106.4H117.604L122.561 93.3613H126.256L131.212 106.4H127.601L126.826 104.134V104.134ZM125.929 101.553L124.402 97.2147L122.876 101.553H125.917H125.929Z" fill="black"/>
<path d="M141.996 96.2332V106.4H138.603V96.2332H135.816V93.3613H144.771V96.2332H141.984H141.996Z" fill="black"/>
<path d="M154.805 93.373V106.411H151.412V93.373H154.805Z" fill="black"/>
<path d="M162.172 99.8808C162.172 98.9114 162.354 98.0147 162.705 97.1786C163.056 96.3425 163.553 95.6154 164.195 94.9974C164.826 94.3794 165.589 93.8826 166.474 93.5312C167.358 93.1798 168.328 92.998 169.382 92.998C170.436 92.998 171.393 93.1798 172.29 93.5312C173.175 93.8826 173.938 94.3673 174.58 94.9974C175.222 95.6154 175.719 96.3425 176.071 97.1786C176.422 98.0147 176.604 98.9114 176.604 99.8808C176.604 100.85 176.422 101.747 176.071 102.583C175.719 103.419 175.21 104.146 174.58 104.764C173.938 105.382 173.175 105.879 172.29 106.23C171.405 106.582 170.436 106.763 169.382 106.763C168.328 106.763 167.346 106.582 166.474 106.23C165.601 105.879 164.838 105.394 164.195 104.764C163.565 104.146 163.069 103.419 162.705 102.583C162.342 101.747 162.172 100.85 162.172 99.8808ZM165.71 99.8808C165.71 100.402 165.807 100.874 166.001 101.311C166.195 101.747 166.461 102.135 166.801 102.45C167.14 102.777 167.528 103.019 167.964 103.201C168.412 103.383 168.873 103.468 169.37 103.468C169.866 103.468 170.339 103.383 170.775 103.201C171.224 103.019 171.611 102.777 171.951 102.45C172.29 102.123 172.557 101.747 172.75 101.311C172.944 100.874 173.041 100.39 173.041 99.8808C173.041 99.3718 172.944 98.8871 172.75 98.4509C172.557 98.0147 172.29 97.6269 171.951 97.3119C171.611 96.9847 171.224 96.7423 170.775 96.5606C170.327 96.3788 169.866 96.294 169.37 96.294C168.873 96.294 168.4 96.3788 167.964 96.5606C167.528 96.7423 167.128 96.9847 166.801 97.3119C166.461 97.639 166.207 98.0147 166.001 98.4509C165.807 98.8871 165.71 99.3718 165.71 99.8808Z" fill="black"/>
<path d="M183.947 106.4V93.3613H187.34L193.593 101.335V93.3613H196.961V106.4H193.593L187.34 98.4264V106.4H183.947Z" fill="black"/>
</svg>
