<?xml version="1.0" encoding="utf-8"?>
<svg width="240" height="135" viewBox="0 0 240 135" fill="none" xmlns="http://www.w3.org/2000/svg">
<g clip-path="url(#clip0_1_7)">
<g clip-path="url(#clip1_1_7)">
<path d="M193.856 58.0166H211.998V41.0538H193.265C178.269 41.0538 166.112 52.8957 166.112 67.4975C166.112 82.1031 178.269 93.9412 193.265 93.9412H211.998V76.9785H193.856C188.61 76.9785 184.359 72.734 184.359 67.4975C184.359 62.261 188.61 58.0166 193.856 58.0166Z" fill="black"/>
<path d="M136.205 41.0538H109.665V93.9449H126.477V79.772H136.205C146.917 79.772 155.595 71.1041 155.595 60.4148C155.595 49.7254 146.917 41.0538 136.205 41.0538ZM133.108 67.3558H126.477V54.298H133.108C136.721 54.298 139.65 57.2221 139.65 60.8288C139.65 64.4354 136.721 67.3595 133.108 67.3595V67.3558Z" fill="black"/>
<path d="M69.7011 41.0538L59.1544 65.4462L48.5479 41.0538H28V93.8107H44.812V61.6008L52.9601 79.6377H53.0162L52.9601 79.772H65.2889L73.4371 61.7351V93.9449H90.2491V41.0538H69.7011Z" fill="black"/>
</g>
</g>
<defs>
<clipPath id="clip0_1_7">
<rect width="184" height="53" fill="white" transform="translate(28 41)"/>
</clipPath>
<clipPath id="clip1_1_7">
<rect width="183.998" height="52.8911" fill="white" transform="translate(28 41.0538)"/>
</clipPath>
</defs>
</svg>
