<?xml version="1.0" encoding="utf-8"?>
<svg width="240" height="135" viewBox="0 0 240 135" fill="none" xmlns="http://www.w3.org/2000/svg">
<path d="M55.1096 76.5836V73.2659C55.1096 69.2777 51.8827 66.0508 47.8945 66.0508H27.2151C23.2269 66.0508 20 69.2777 20 73.2659V90.4002C20 92.2296 20.7272 93.9794 22.0225 95.2747L25.9084 99.1606C27.2037 100.456 28.9535 101.183 30.7828 101.183H47.9172C51.9054 101.183 55.1323 97.9562 55.1323 93.968V80.6968H39.8613V88.3096H47.4741V93.5817H31.0669L27.5787 90.0934V73.6863H47.4854V76.6177H55.1436L55.1096 76.5836Z" fill="#F97560"/>
<path d="M88.7533 66.0508C92.7529 66.0508 96.0252 69.2663 96.0252 73.2659V101.172H88.367V89.8548H68.4602V101.172H60.9043V73.2659C60.9043 69.2663 64.1198 66.0508 68.1194 66.0508H88.7533V66.0508ZM88.367 82.2421V73.6522H68.4602V82.2421H88.367Z" fill="#F97560"/>
<path d="M133.237 66.0508H141.054V101.172H133.476V77.6176C129.544 82.2989 125.317 87.4688 121.431 92.0591L109.331 77.6744V101.183H101.797V66.0621H109.569L121.42 80.2537L133.226 66.0621L133.237 66.0508Z" fill="#F97560"/>
<path d="M179.209 73.6639H154.484V79.8109H174.391V87.4237H154.484V93.5707H179.209V101.183H146.849V66.0625H179.209V73.6753V73.6639Z" fill="#F97560"/>
<path d="M219.011 76.5382H211.353V73.6635H191.446V79.8105H211.785C215.739 79.8105 219 83.0261 219 87.0256V93.9566C219 97.9562 215.727 101.172 211.785 101.172H191.105C187.106 101.172 183.89 97.9562 183.89 93.9566V90.6843H191.446V93.559H211.353V87.4119H191.105C187.106 87.4119 183.89 84.1964 183.89 80.1969V73.2659C183.89 69.2663 187.106 66.0508 191.105 66.0508H211.785C215.739 66.0508 219 69.2663 219 73.2659V76.5382H219.011Z" fill="#F97560"/>
<path d="M59.768 44.4426V51.5326C59.768 52.703 60.427 53.1802 61.745 53.1802C62.1086 53.1802 62.37 53.1461 62.7904 53.0893L63.029 55.0095C62.2791 55.1572 61.6201 55.2481 60.9611 55.2481C58.6886 55.2481 57.4501 54.0437 57.4501 51.2827V44.4426H55.439V44.1471L57.4501 42.1928V39.9999L59.7566 38.2842V42.3973H63.4721V44.4426H59.7566H59.768Z" fill="black"/>
<path d="M76.9706 49.4184H67.7444C68.0171 51.5772 69.2101 53.202 72.4484 53.202C73.4937 53.202 74.755 52.9066 75.9253 52.5089L76.3457 54.52C74.9027 54.9405 73.4142 55.2359 72.2439 55.2359C67.7217 55.2359 65.4492 52.3839 65.4492 48.748C65.4492 45.1121 67.6649 42.1465 71.5621 42.1465C75.1299 42.1465 77.0729 44.7825 77.0729 48.214C77.0729 48.6344 77.0729 48.9639 76.982 49.4184H76.9706ZM74.8686 47.6231C74.7209 45.6688 73.6074 44.1463 71.3917 44.1463C69.3579 44.1463 68.0966 45.4643 67.8239 47.6231H74.8686Z" fill="black"/>
<path d="M86.1171 55.2476C82.1289 55.2476 79.311 52.3956 79.311 48.7597C79.311 45.1238 82.1289 42.1582 86.1171 42.1582C87.6737 42.1582 89.2644 42.7263 90.4007 43.4535L89.4462 45.2488C88.4236 44.6465 87.1965 44.2034 85.9125 44.2034C83.4583 44.2034 81.5949 45.885 81.5949 48.7711C81.5949 51.498 83.7537 53.2137 86.0603 53.2137C87.3442 53.2137 88.5713 52.7592 89.5939 52.157L90.4007 53.9637C89.2644 54.6795 87.6737 55.259 86.1171 55.259" fill="black"/>
<path d="M102.059 55.0088V47.0779C102.059 45.1236 101.218 44.1351 99.423 44.1351C98.0141 44.1351 96.4234 45.1236 95.503 46.1803V55.0088H93.1396V33H95.503V44.2828C96.821 42.9307 98.3777 42.1467 100.025 42.1467C102.934 42.1467 104.434 43.9192 104.434 46.4416V54.9974H102.07L102.059 55.0088Z" fill="black"/>
<path d="M116.41 55.009V47.0781C116.41 45.1238 115.694 44.1352 113.864 44.1352C112.455 44.1352 110.99 45.1238 110.035 46.1805V55.009H107.672V42.3968H109.922V44.317C111.24 42.999 112.887 42.1582 114.569 42.1582C117.478 42.1582 118.796 43.9307 118.796 46.4532V55.009H116.432H116.41Z" fill="black"/>
<path d="M123.954 39.5445C123.113 39.5445 122.454 38.8514 122.454 38.0447C122.454 37.2379 123.113 36.5107 123.954 36.5107C124.795 36.5107 125.454 37.2038 125.454 38.0447C125.454 38.8855 124.795 39.5445 123.954 39.5445ZM122.761 42.3964H125.124V55.0086H122.761V42.3964Z" fill="black"/>
<path d="M134.953 55.2476C130.976 55.2476 128.158 52.3956 128.158 48.7597C128.158 45.1238 130.976 42.1582 134.953 42.1582C136.51 42.1582 138.1 42.7263 139.236 43.4535L138.282 45.2488C137.259 44.6465 136.032 44.2034 134.748 44.2034C132.294 44.2034 130.431 45.885 130.431 48.7711C130.431 51.498 132.59 53.2137 134.896 53.2137C136.18 53.2137 137.407 52.7592 138.43 52.157L139.236 53.9637C138.1 54.6795 136.51 55.259 134.953 55.259" fill="black"/>
<path d="M147.36 55.2476C143.531 55.2476 140.975 52.3048 140.975 48.7029C140.975 45.101 143.52 42.1582 147.36 42.1582C151.201 42.1582 153.712 45.101 153.712 48.7029C153.712 52.3048 151.201 55.2476 147.36 55.2476ZM147.36 44.0784C144.929 44.0784 143.315 45.9419 143.315 48.7029C143.315 51.4639 144.929 53.3274 147.36 53.3274C149.792 53.3274 151.371 51.4639 151.371 48.7029C151.371 45.9419 149.758 44.0784 147.36 44.0784Z" fill="black"/>
<path d="M158.768 33H156.404V55.0088H158.768V33Z" fill="black"/>
<path d="M167.847 55.2476C164.017 55.2476 161.461 52.3048 161.461 48.7029C161.461 45.101 164.006 42.1582 167.847 42.1582C171.687 42.1582 174.198 45.101 174.198 48.7029C174.198 52.3048 171.687 55.2476 167.847 55.2476ZM167.847 44.0784C165.415 44.0784 163.802 45.9419 163.802 48.7029C163.802 51.4639 165.415 53.3274 167.847 53.3274C170.278 53.3274 171.857 51.4639 171.857 48.7029C171.857 45.9419 170.233 44.0784 167.847 44.0784Z" fill="black"/>
<path d="M179.163 46.3846V54.9973H176.8V42.3851H179.05V44.4871C180.254 42.9305 181.901 42.1465 183.549 42.1465V44.453C181.72 44.453 180.049 45.1121 179.175 46.3733L179.163 46.3846Z" fill="black"/>
</svg>
