<?xml version="1.0" encoding="utf-8"?>
<svg width="240" height="135" viewBox="0 0 240 135" fill="none" xmlns="http://www.w3.org/2000/svg">
<path fill-rule="evenodd" clip-rule="evenodd" d="M149.6 13H136.66V86.53H149.6V13ZM164.7 13H151.76V86.6H164.7V13ZM76 29.48H88.94V86.56H76V29.48ZM104.11 29.48H91.17V86.56H104.11V29.48ZM106.33 29.48H119.27V86.56H106.33V29.48ZM134.44 29.48H121.5V86.56H134.44V29.48ZM93.0402 111.47H83.2002V113.57H86.9002V123H89.3202V113.57H93.0402V111.47ZM104.84 111.47V123H102.44V118.15H97.2202V123H94.8202V111.47H97.2202V116.05H102.44V111.47H104.84ZM115.08 113.57V111.47H107.25V123H115.08V120.88H109.61V118.14H114.57V116.09H109.61V113.57H115.08ZM126.97 120.52L123.65 115.56V123H121.3V111.47H123.54L127.03 116.92L130.5 111.47H132.7V123H130.33V115.56L127.04 120.52H126.97ZM135.09 123H137.49V111.47H135.09V123ZM139.87 111.47H142.27V120.88H147.64V123H139.86V111.47H139.87ZM151.99 111.47H149.59H149.58V123H157.36V120.88H151.99V111.47Z" fill="black"/>
</svg>
