<svg width="30" height="22" viewBox="0 0 30 22" fill="none" xmlns="http://www.w3.org/2000/svg">
<path fill-rule="evenodd" clip-rule="evenodd" d="M25.8112 21.1933C27.3512 20.9733 28.5979 19.8 28.8912 18.26C29.1845 16.5733 29.4779 14.08 29.5512 11C29.5512 7.92 29.1845 5.42667 28.8912 3.74C28.5979 2.2 27.3512 1.02667 25.8112 0.806667C23.3179 0.44 19.3579 0 14.8112 0C10.2645 0 6.2312 0.44 3.8112 0.806667C2.2712 1.02667 1.02453 2.2 0.731198 3.74C0.437865 5.42667 0.144531 7.92 0.144531 11C0.144531 14.08 0.437865 16.5733 0.731198 18.26C1.02453 19.8 2.2712 20.9733 3.8112 21.1933C6.30453 21.56 10.3379 22 14.8112 22C19.3579 22 23.3912 21.56 25.8112 21.1933ZM20.6789 11.0005L11.8789 5.86719V16.1339L20.6789 11.0005Z" fill="white"/>
</svg>
